<svg width="240" height="240" viewBox="0 0 240 240" xmlns="http://www.w3.org/2000/svg">
  <g fill="none" stroke="#f2c77b" stroke-width="2" stroke-linecap="round" stroke-linejoin="round" opacity="0.32">
    <g transform="translate(18 18)">
      <path d="M8 20c-5 0-8-4-8-8s4-8 8-8c3 0 5 1 7 3 2-2 4-3 7-3 4 0 8 4 8 8s-4 8-8 8H8z" />
      <path d="M6 20v10h24V20" />
      <path d="M10 30h16" />
    </g>

    <g transform="translate(96 96)">
      <path d="M6 8h28a6 6 0 0 1 6 6v10H0V14a6 6 0 0 1 6-6z" />
      <path d="M8 8V2h24v6" />
      <path d="M10 26h20" />
    </g>

    <g transform="translate(174 174)">
      <path d="M4 16c6-8 14-8 20 0-6 8-14 8-20 0z" />
      <path d="M14 4v6" />
    </g>

    <g transform="translate(40 174)">
      <path d="M2 10h18l-3 10H4z" />
      <path d="M6 6v4" />
    </g>

    <g transform="translate(174 40)">
      <path d="M2 10h18l-3 10H4z" />
      <path d="M6 6v4" />
    </g>

    <circle cx="48" cy="48" r="2.5" />
    <circle cx="120" cy="120" r="2.5" />
    <circle cx="192" cy="192" r="2.5" />
    <circle cx="192" cy="48" r="2.5" />
    <circle cx="48" cy="192" r="2.5" />
  </g>
</svg>
